<svg xmlns="http://www.w3.org/2000/svg" xmlns:xlink="http://www.w3.org/1999/xlink" preserveAspectRatio="xMidYMid" width="65" height="73" viewBox="0 0 65 73">
  <defs>
    <style>

      .cls-2 {
        fill: #535353;
      }
    </style>
  </defs>
  <path d="M63.883,61.897 C63.883,61.897 56.777,64.751 56.777,64.751 C56.777,64.751 53.935,71.885 53.935,71.885 C53.699,72.473 53.132,72.859 52.501,72.859 C51.870,72.859 51.302,72.473 51.067,71.885 C51.067,71.885 48.224,64.751 48.224,64.751 C48.224,64.751 41.118,61.897 41.118,61.897 C40.532,61.661 40.148,61.091 40.148,60.458 C40.148,59.824 40.532,59.254 41.118,59.018 C41.118,59.018 48.224,56.164 48.224,56.164 C48.224,56.164 51.067,49.030 51.067,49.030 C51.302,48.442 51.870,48.056 52.501,48.056 C53.132,48.056 53.699,48.442 53.935,49.030 C53.935,49.030 56.777,56.164 56.777,56.164 C56.777,56.164 63.883,59.018 63.883,59.018 C64.469,59.254 64.853,59.824 64.853,60.458 C64.853,61.091 64.469,61.661 63.883,61.897 ZM55.015,58.797 C54.623,58.639 54.312,58.327 54.155,57.933 C54.155,57.933 52.501,53.780 52.501,53.780 C52.501,53.780 50.846,57.933 50.846,57.933 C50.689,58.327 50.378,58.639 49.986,58.797 C49.986,58.797 45.849,60.458 45.849,60.458 C45.849,60.458 49.986,62.118 49.986,62.118 C50.378,62.277 50.689,62.588 50.846,62.982 C50.846,62.982 52.501,67.135 52.501,67.135 C52.501,67.135 54.155,62.982 54.155,62.982 C54.312,62.588 54.623,62.277 55.015,62.118 C55.015,62.118 59.152,60.458 59.152,60.458 C59.152,60.458 55.015,58.797 55.015,58.797 ZM54.824,47.607 C55.197,46.153 55.426,44.767 55.527,43.406 C55.527,43.406 46.291,43.406 46.291,43.406 C46.221,45.504 46.016,47.645 45.666,49.794 C45.666,49.794 42.619,49.293 42.619,49.293 C42.941,47.311 43.134,45.338 43.203,43.406 C43.203,43.406 33.972,43.406 33.972,43.406 C33.972,43.406 33.972,52.668 33.972,52.668 C36.441,52.581 38.918,52.301 41.359,51.806 C41.359,51.806 41.970,54.846 41.970,54.846 C39.328,55.381 36.645,55.681 33.972,55.768 C33.972,55.768 33.972,64.838 33.972,64.838 C35.413,64.347 36.594,63.269 37.407,62.323 C37.407,62.323 39.745,64.348 39.745,64.348 C37.581,66.865 35.052,68.197 32.428,68.207 C32.428,68.207 32.428,68.209 32.428,68.209 C32.422,68.209 32.417,68.208 32.411,68.208 C32.407,68.208 32.403,68.209 32.399,68.209 C32.399,68.209 32.399,68.207 32.399,68.207 C18.171,68.192 6.583,56.748 6.213,42.548 C6.191,42.306 6.146,42.069 6.146,41.824 C6.146,41.824 6.179,41.824 6.179,41.824 C6.182,39.620 6.461,37.415 7.012,35.268 C7.012,35.268 10.002,36.041 10.002,36.041 C9.643,37.442 9.417,38.870 9.321,40.305 C9.321,40.305 18.560,40.305 18.560,40.305 C18.624,38.109 18.820,35.944 19.160,33.854 C19.160,33.854 22.207,34.352 22.207,34.352 C21.895,36.276 21.741,38.279 21.678,40.305 C21.678,40.305 30.883,40.305 30.883,40.305 C30.883,40.305 30.883,31.009 30.883,31.009 C28.327,31.090 25.837,31.361 23.468,31.841 C23.468,31.841 22.857,28.801 22.857,28.801 C25.424,28.281 28.120,27.991 30.883,27.908 C30.883,27.908 30.883,18.663 30.883,18.663 C28.941,18.792 27.031,19.153 25.190,19.761 C25.190,19.761 24.225,16.816 24.225,16.816 C26.855,15.947 29.604,15.507 32.398,15.503 C32.398,15.503 32.398,15.502 32.398,15.502 C32.401,15.502 32.404,15.503 32.408,15.503 C32.414,15.503 32.421,15.502 32.428,15.502 C32.428,15.502 32.428,15.502 32.428,15.502 C32.428,15.502 32.428,15.502 32.429,15.502 C32.429,15.502 32.429,15.502 32.430,15.502 C32.430,15.502 32.430,15.502 32.430,15.502 C46.903,15.503 58.677,27.325 58.677,41.855 C58.677,43.982 58.395,46.115 57.814,48.379 C57.814,48.379 54.824,47.607 54.824,47.607 ZM18.567,43.406 C18.567,43.406 9.527,43.406 9.527,43.406 C10.502,46.403 14.179,49.045 19.337,50.738 C18.913,48.432 18.649,45.974 18.567,43.406 ZM10.665,49.757 C13.007,56.217 18.118,61.351 24.561,63.698 C22.693,61.300 21.169,58.048 20.117,54.223 C16.301,53.168 13.060,51.635 10.665,49.757 ZM30.883,43.406 C30.883,43.406 21.663,43.406 21.663,43.406 C21.761,46.316 22.111,49.101 22.680,51.647 C25.215,52.217 27.987,52.566 30.883,52.664 C30.883,52.664 30.883,43.406 30.883,43.406 ZM30.883,55.772 C28.329,55.693 25.883,55.432 23.589,55.009 C25.277,60.181 27.904,63.881 30.883,64.849 C30.883,64.849 30.883,55.772 30.883,55.772 ZM33.972,40.305 C33.972,40.305 43.194,40.305 43.194,40.305 C43.098,37.385 42.750,34.589 42.177,32.039 C39.641,31.467 36.873,31.108 33.972,31.011 C33.972,31.011 33.972,40.305 33.972,40.305 ZM33.972,18.889 C33.972,18.889 33.972,27.913 33.972,27.913 C36.522,27.990 38.961,28.249 41.250,28.673 C39.561,23.545 36.944,19.865 33.972,18.889 ZM40.287,20.015 C42.155,22.408 43.680,25.650 44.733,29.462 C48.552,30.521 51.795,32.058 54.186,33.941 C51.842,27.484 46.731,22.354 40.287,20.015 ZM45.516,32.951 C45.943,35.263 46.208,37.729 46.288,40.305 C46.288,40.305 55.332,40.305 55.332,40.305 C54.370,37.300 50.678,34.651 45.516,32.951 ZM33.972,12.402 C33.972,12.402 30.883,12.402 30.883,12.402 C30.883,12.402 30.883,13.952 30.883,13.952 C30.883,13.952 27.795,13.952 27.795,13.952 C27.795,13.952 27.795,10.851 27.795,10.851 C27.795,9.995 28.487,9.301 29.339,9.301 C29.339,9.301 30.883,9.301 30.883,9.301 C30.883,9.301 30.883,0.000 30.883,0.000 C30.883,0.000 33.972,0.000 33.972,0.000 C33.972,0.000 33.972,9.301 33.972,9.301 C33.972,9.301 35.516,9.301 35.516,9.301 C36.368,9.301 37.060,9.995 37.060,10.851 C37.060,10.851 37.060,13.952 37.060,13.952 C37.060,13.952 33.972,13.952 33.972,13.952 C33.972,13.952 33.972,12.402 33.972,12.402 ZM24.707,23.253 C24.707,23.887 24.323,24.457 23.737,24.693 C23.737,24.693 16.631,27.546 16.631,27.546 C16.631,27.546 13.788,34.680 13.788,34.680 C13.553,35.269 12.985,35.655 12.354,35.655 C11.723,35.655 11.156,35.269 10.920,34.680 C10.920,34.680 8.078,27.546 8.078,27.546 C8.078,27.546 0.972,24.693 0.972,24.693 C0.386,24.457 0.002,23.887 0.002,23.253 C0.002,22.619 0.386,22.049 0.972,21.813 C0.972,21.813 8.078,18.960 8.078,18.960 C8.078,18.960 10.920,11.826 10.920,11.826 C11.156,11.237 11.723,10.851 12.354,10.851 C12.985,10.851 13.553,11.237 13.788,11.826 C13.788,11.826 16.631,18.960 16.631,18.960 C16.631,18.960 23.737,21.813 23.737,21.813 C24.323,22.049 24.707,22.619 24.707,23.253 ZM14.869,21.592 C14.477,21.434 14.166,21.122 14.009,20.729 C14.009,20.729 12.354,16.575 12.354,16.575 C12.354,16.575 10.700,20.729 10.700,20.729 C10.543,21.122 10.232,21.434 9.840,21.592 C9.840,21.592 5.703,23.253 5.703,23.253 C5.703,23.253 9.840,24.914 9.840,24.914 C10.232,25.072 10.543,25.384 10.700,25.777 C10.700,25.777 12.354,29.931 12.354,29.931 C12.354,29.931 14.009,25.777 14.009,25.777 C14.166,25.384 14.477,25.072 14.869,24.914 C14.869,24.914 19.006,23.253 19.006,23.253 C19.006,23.253 14.869,21.592 14.869,21.592 Z" id="path-1" class="cls-2" fill-rule="evenodd"/>
</svg>
