<svg xmlns="http://www.w3.org/2000/svg" xmlns:xlink="http://www.w3.org/1999/xlink" preserveAspectRatio="xMidYMid" width="59" height="73" viewBox="0 0 59 73">
  <defs>
    <style>

      .cls-2 {
        fill: #535353;
      }
    </style>
  </defs>
  <path d="M45.233,51.759 C49.484,57.215 49.191,58.442 49.045,59.058 C48.905,59.643 48.517,60.111 47.978,60.345 C47.105,60.723 45.299,60.890 43.414,60.905 C42.748,62.156 42.418,63.281 42.753,64.776 C42.828,65.106 43.201,65.682 43.562,66.239 C44.527,67.728 45.849,69.769 45.849,72.871 C45.849,72.871 42.792,72.871 42.792,72.871 C42.792,70.697 41.844,69.232 41.007,67.941 C40.474,67.118 39.971,66.340 39.774,65.465 C39.364,63.643 39.595,62.145 40.116,60.781 C39.093,60.691 38.230,60.558 37.732,60.393 C37.147,60.199 36.697,59.738 36.499,59.129 C35.937,57.402 37.796,53.885 39.023,51.840 C36.864,50.642 34.278,48.502 32.419,45.863 C32.419,45.863 34.906,44.061 34.906,44.061 C36.836,46.800 39.898,49.077 41.744,49.697 C41.744,49.697 42.047,49.798 42.047,49.798 C42.047,49.798 42.243,49.722 42.243,49.722 C46.878,47.914 55.642,41.835 55.642,31.764 C55.642,21.379 50.865,15.180 42.865,15.180 C41.905,15.180 40.962,15.282 40.065,15.484 C40.065,15.484 39.405,12.456 39.405,12.456 C40.519,12.206 41.683,12.080 42.865,12.080 C52.632,12.080 58.699,19.622 58.699,31.764 C58.699,42.234 50.727,48.952 45.233,51.759 ZM42.073,52.722 C41.059,54.312 39.993,56.438 39.598,57.624 C41.186,57.825 43.982,57.858 45.622,57.704 C45.003,56.617 43.753,54.820 42.073,52.722 ZM23.778,50.224 C23.937,50.427 24.102,50.635 24.269,50.845 C26.805,54.045 28.217,55.933 27.756,57.505 C27.569,58.143 27.095,58.630 26.453,58.843 C25.337,59.213 23.659,59.392 22.169,59.451 C21.615,60.713 21.105,62.007 21.359,63.253 C21.440,63.640 21.764,64.094 22.174,64.670 C23.134,66.015 24.449,67.859 24.449,71.321 C24.449,71.321 21.392,71.321 21.392,71.321 C21.392,68.863 20.531,67.655 19.696,66.487 C19.147,65.717 18.580,64.921 18.368,63.886 C18.025,62.218 18.391,60.702 18.891,59.373 C17.912,59.280 16.938,59.113 16.205,58.794 C15.554,58.512 15.099,57.955 14.924,57.225 C14.467,55.307 16.163,52.288 17.428,50.385 C10.474,47.200 -0.008,36.154 -0.008,24.815 C-0.008,9.747 7.792,0.012 19.864,0.012 C31.564,0.012 39.735,9.574 39.735,23.265 C39.735,34.063 30.610,46.385 23.778,50.224 ZM21.053,56.375 C22.240,56.375 23.454,56.287 24.381,56.143 C23.760,55.153 22.597,53.685 21.885,52.787 C21.430,52.212 20.991,51.656 20.613,51.155 C19.331,52.877 18.207,55.060 17.953,56.110 C18.593,56.256 19.623,56.375 21.053,56.375 ZM19.864,3.112 C9.649,3.112 3.050,11.631 3.050,24.815 C3.050,35.355 14.411,46.746 20.209,48.108 C20.209,48.108 20.689,48.221 20.689,48.221 C20.689,48.221 20.912,48.147 20.912,48.147 C26.171,46.383 36.678,34.388 36.678,23.265 C36.678,11.211 29.920,3.112 19.864,3.112 ZM17.756,8.794 C12.215,10.309 9.164,15.999 9.164,24.815 C9.164,25.671 8.480,26.365 7.635,26.365 C6.790,26.365 6.107,25.671 6.107,24.815 C6.107,14.617 10.062,7.687 16.962,5.802 C17.769,5.577 18.616,6.067 18.835,6.894 C19.055,7.721 18.573,8.572 17.756,8.794 Z" id="path-1" class="cls-2" fill-rule="evenodd"/>
</svg>
