<svg xmlns="http://www.w3.org/2000/svg" xmlns:xlink="http://www.w3.org/1999/xlink" preserveAspectRatio="xMidYMid" width="75" height="57" viewBox="0 0 75 57">
  <defs>
    <style>

      .cls-2 {
        fill: #535353;
      }
    </style>
  </defs>
  <path d="M73.276,30.819 C72.479,32.861 70.559,35.437 66.107,36.638 C65.471,40.001 63.084,48.164 60.467,51.070 C58.897,52.813 54.906,55.764 49.904,55.764 C47.382,55.764 45.046,54.907 42.787,54.077 C40.710,53.313 38.749,52.593 36.818,52.593 C34.889,52.593 32.926,53.313 30.850,54.077 C28.591,54.907 26.254,55.764 23.733,55.764 C18.732,55.764 14.739,52.813 13.169,51.070 C10.531,48.139 8.125,39.864 7.513,36.553 C4.159,35.313 1.734,32.703 0.649,29.074 C-0.938,23.768 0.538,16.893 4.159,12.726 C10.671,5.229 17.556,3.970 29.564,8.079 C39.830,11.601 48.018,1.956 49.555,-0.014 C49.555,-0.014 51.990,1.924 51.990,1.924 C50.229,4.182 40.814,15.229 28.568,11.044 C17.721,7.332 12.149,8.276 6.490,14.789 C3.575,18.145 2.340,23.897 3.617,28.169 C4.139,29.915 5.304,32.082 7.833,33.304 C8.770,31.403 11.039,30.087 14.075,28.814 C20.117,26.282 27.953,27.671 33.140,28.593 C34.741,28.877 36.123,29.121 36.818,29.121 C37.513,29.121 38.896,28.877 40.498,28.593 C45.684,27.671 53.521,26.282 59.562,28.814 C62.681,30.122 64.976,31.482 65.863,33.468 C68.161,32.736 69.689,31.468 70.391,29.672 C71.419,27.036 70.565,23.316 68.161,19.962 C64.568,14.951 58.966,14.488 51.031,18.559 C44.960,21.675 33.433,24.348 27.575,21.279 C27.575,21.279 29.006,18.501 29.006,18.501 C33.690,20.960 44.173,18.565 49.626,15.769 C61.321,9.771 67.528,13.739 70.674,18.128 C73.736,22.401 74.709,27.146 73.276,30.819 ZM58.372,31.705 C53.168,29.519 45.865,30.816 41.034,31.675 C39.218,31.997 37.784,32.251 36.818,32.251 C35.853,32.251 34.419,31.997 32.603,31.675 C27.771,30.816 20.468,29.520 15.265,31.705 C10.460,33.720 10.460,34.800 10.460,35.381 C10.481,36.761 13.084,46.320 15.464,48.964 C16.607,50.234 19.807,52.635 23.733,52.635 C25.708,52.635 27.690,51.907 29.789,51.136 C32.028,50.313 34.342,49.464 36.818,49.464 C39.296,49.464 41.609,50.313 43.847,51.136 C45.947,51.907 47.929,52.635 49.904,52.635 C53.831,52.635 57.029,50.234 58.172,48.964 C60.552,46.322 63.155,36.761 63.176,35.379 C63.176,34.800 63.176,33.720 58.372,31.705 ZM47.117,46.976 C43.643,46.976 39.821,45.692 39.660,45.639 C39.660,45.639 38.376,45.203 38.376,45.203 C38.376,45.203 38.631,43.860 38.631,43.860 C39.516,39.198 44.448,36.313 48.510,36.313 C52.038,36.313 55.332,37.138 56.914,37.534 C56.914,37.534 59.789,38.241 59.789,38.241 C59.789,38.241 58.007,40.194 58.007,40.194 C54.087,44.490 51.048,46.976 47.117,46.976 ZM48.510,39.442 C46.173,39.442 43.335,40.894 42.156,43.108 C43.449,43.441 45.372,43.846 47.117,43.846 C49.159,43.846 51.054,42.812 53.854,40.037 C52.340,39.730 50.446,39.442 48.510,39.442 ZM26.519,46.976 C22.588,46.976 19.549,44.490 15.629,40.194 C15.629,40.194 13.846,38.241 13.846,38.241 C13.846,38.241 16.723,37.534 16.723,37.534 C18.306,37.138 21.599,36.313 25.126,36.313 C29.188,36.313 34.119,39.198 35.006,43.860 C35.006,43.860 35.262,45.203 35.262,45.203 C35.262,45.203 33.978,45.639 33.978,45.639 C33.817,45.692 29.994,46.976 26.519,46.976 ZM25.126,39.442 C23.192,39.442 21.296,39.730 19.783,40.037 C22.582,42.812 24.477,43.846 26.519,43.846 C28.264,43.846 30.189,43.441 31.482,43.108 C30.302,40.894 27.463,39.442 25.126,39.442 Z" id="path-1" class="cls-2" fill-rule="evenodd"/>
</svg>
