<svg xmlns="http://www.w3.org/2000/svg" xmlns:xlink="http://www.w3.org/1999/xlink" preserveAspectRatio="xMidYMid" width="51" height="65" viewBox="0 0 51 65">
  <defs>
    <style>

      .cls-2 {
        fill: #535353;
      }
    </style>
  </defs>
  <path d="M47.005,25.058 C44.444,27.652 40.993,29.081 37.291,29.081 C35.860,29.081 34.457,28.865 33.111,28.461 C33.111,28.461 15.508,44.874 15.508,44.874 C14.175,46.117 12.494,46.734 10.816,46.734 C9.494,46.734 8.175,46.348 7.027,45.585 C7.027,45.585 4.095,48.737 4.095,48.737 C3.137,49.767 2.665,51.165 2.801,52.574 C2.937,53.983 3.667,55.262 4.803,56.084 C6.591,57.379 9.018,57.288 10.707,55.866 C10.707,55.866 36.426,34.204 36.426,34.204 C38.889,32.021 42.567,31.940 45.151,34.032 C46.875,35.430 47.805,37.514 47.702,39.748 C47.599,41.982 46.482,43.969 44.638,45.198 C39.919,48.342 20.546,63.573 20.351,63.727 C20.097,63.926 19.798,64.022 19.501,64.022 C19.087,64.022 18.678,63.835 18.404,63.478 C17.935,62.866 18.045,61.983 18.650,61.507 C19.450,60.878 38.305,46.054 43.113,42.851 C44.208,42.122 44.871,40.943 44.932,39.618 C44.992,38.292 44.441,37.056 43.418,36.226 C41.886,34.983 39.703,35.032 38.225,36.342 C38.225,36.342 12.480,58.026 12.480,58.026 C9.821,60.263 6.002,60.405 3.191,58.371 C1.402,57.077 0.254,55.064 0.041,52.847 C-0.173,50.631 0.569,48.430 2.077,46.809 C2.077,46.809 5.054,43.610 5.054,43.610 C3.299,40.965 3.505,37.389 5.716,34.955 C5.716,34.955 22.499,16.314 22.499,16.314 C21.770,11.911 22.996,7.318 26.245,4.027 C28.806,1.432 32.256,0.003 35.958,0.003 C39.914,0.003 43.671,1.601 46.535,4.503 C52.258,10.301 52.469,19.522 47.005,25.058 ZM7.761,36.852 C6.243,38.523 6.296,41.084 7.877,42.685 C9.458,44.287 11.985,44.341 13.630,42.806 C13.630,42.806 30.280,27.282 30.280,27.282 C28.991,26.576 27.790,25.670 26.715,24.581 C25.230,23.077 24.124,21.340 23.384,19.499 C23.384,19.499 7.761,36.852 7.761,36.852 ZM25.630,10.278 C24.294,14.371 25.320,19.196 28.676,22.595 C31.017,24.966 34.076,26.271 37.291,26.271 C38.517,26.271 39.704,26.066 40.822,25.691 C40.545,25.595 40.266,25.495 39.978,25.375 C37.298,24.256 34.371,22.168 31.733,19.496 C28.984,16.711 26.662,13.314 25.630,10.278 ZM44.574,6.489 C42.233,4.118 39.173,2.813 35.958,2.813 C32.996,2.813 30.243,3.950 28.206,6.013 C27.011,7.223 28.556,12.304 33.694,17.510 C36.079,19.925 38.686,21.796 41.034,22.777 C42.911,23.563 44.445,23.673 45.043,23.070 C45.043,23.070 45.044,23.071 45.044,23.071 C45.044,23.071 45.044,23.071 45.044,23.071 C49.426,18.631 49.215,11.192 44.574,6.489 Z" id="path-1" class="cls-2" fill-rule="evenodd"/>
</svg>
