<svg xmlns="http://www.w3.org/2000/svg" xmlns:xlink="http://www.w3.org/1999/xlink" preserveAspectRatio="xMidYMid" width="75" height="75" viewBox="0 0 75 75">
  <defs>
    <style>

      .cls-2 {
        fill: #535353;
      }
    </style>
  </defs>
  <path d="M57.131,47.719 C57.131,47.719 57.131,66.666 57.131,66.666 C57.131,71.991 46.726,74.417 37.058,74.417 C27.390,74.417 16.985,71.991 16.985,66.666 C16.985,66.666 16.985,47.742 16.985,47.742 C16.882,47.721 16.774,47.703 16.671,47.682 C16.671,47.682 17.303,44.648 17.303,44.648 C23.122,45.868 29.954,46.513 37.058,46.513 C58.105,46.513 71.028,41.097 71.028,37.212 C71.028,33.327 58.105,27.911 37.058,27.911 C34.496,27.911 31.934,27.996 29.442,28.165 C29.442,28.165 29.234,25.071 29.234,25.071 C31.795,24.898 34.427,24.810 37.058,24.810 C55.023,24.810 74.116,29.157 74.116,37.212 C74.116,42.169 66.881,45.719 57.131,47.719 ZM54.043,48.287 C48.710,49.163 42.828,49.614 37.058,49.614 C31.078,49.614 25.284,49.160 20.073,48.306 C20.073,48.306 20.073,66.666 20.073,66.666 C20.073,68.289 25.906,71.316 37.058,71.316 C48.210,71.316 54.043,68.289 54.043,66.666 C54.043,66.666 54.043,48.287 54.043,48.287 ZM65.304,10.404 C65.304,10.404 67.487,8.212 67.487,8.212 C67.487,8.212 70.576,11.313 70.576,11.313 C70.576,11.313 68.392,13.505 68.392,13.505 C68.392,13.505 65.304,10.404 65.304,10.404 ZM65.304,3.562 C65.304,3.562 68.392,0.461 68.392,0.461 C68.392,0.461 70.576,2.653 70.576,2.653 C70.576,2.653 67.487,5.754 67.487,5.754 C67.487,5.754 65.304,3.562 65.304,3.562 ZM57.584,11.313 C57.584,11.313 60.672,8.212 60.672,8.212 C60.672,8.212 62.855,10.404 62.855,10.404 C62.855,10.404 59.767,13.505 59.767,13.505 C59.767,13.505 57.584,11.313 57.584,11.313 ZM57.584,2.653 C57.584,2.653 59.767,0.461 59.767,0.461 C59.767,0.461 62.855,3.562 62.855,3.562 C62.855,3.562 60.672,5.754 60.672,5.754 C60.672,5.754 57.584,2.653 57.584,2.653 ZM50.955,15.509 C50.955,15.509 54.043,15.509 54.043,15.509 C54.043,15.509 54.043,18.610 54.043,18.610 C54.043,18.610 50.955,18.610 50.955,18.610 C50.955,18.610 50.955,15.509 50.955,15.509 ZM50.955,21.710 C50.955,21.710 47.867,21.710 47.867,21.710 C47.867,21.710 47.867,18.610 47.867,18.610 C47.867,18.610 50.955,18.610 50.955,18.610 C50.955,18.610 50.955,21.710 50.955,21.710 ZM44.778,18.610 C44.778,18.610 44.778,15.509 44.778,15.509 C44.778,15.509 47.867,15.509 47.867,15.509 C47.867,15.509 47.867,18.610 47.867,18.610 C47.867,18.610 44.778,18.610 44.778,18.610 ZM47.867,12.409 C47.867,12.409 50.955,12.409 50.955,12.409 C50.955,12.409 50.955,15.509 50.955,15.509 C50.955,15.509 47.867,15.509 47.867,15.509 C47.867,15.509 47.867,12.409 47.867,12.409 ZM53.226,36.024 C53.226,36.024 54.859,38.655 54.859,38.655 C52.054,40.409 45.067,41.543 37.058,41.543 C30.505,41.543 24.534,40.786 21.084,39.518 C21.084,39.518 22.147,36.606 22.147,36.606 C25.228,37.739 30.941,38.443 37.058,38.443 C45.509,38.443 51.363,37.189 53.226,36.024 ZM10.208,51.518 C9.359,52.835 7.904,53.628 6.326,53.628 C5.432,53.628 4.562,53.371 3.810,52.880 C1.667,51.486 1.052,48.602 2.441,46.450 C2.441,46.450 31.634,2.117 31.634,2.117 C32.483,0.800 33.938,0.007 35.517,0.007 C36.410,0.007 37.280,0.266 38.031,0.755 C40.175,2.148 40.789,5.033 39.401,7.186 C39.401,7.186 10.208,51.518 10.208,51.518 ZM36.353,3.356 C36.102,3.194 35.813,3.108 35.517,3.108 C34.990,3.108 34.504,3.373 34.218,3.816 C34.218,3.816 5.024,48.148 5.024,48.148 C4.570,48.852 4.775,49.815 5.490,50.280 C6.185,50.731 7.179,50.511 7.625,49.821 C7.625,49.821 36.817,5.489 36.817,5.489 C37.272,4.784 37.068,3.821 36.353,3.356 ZM12.353,7.758 C12.353,7.758 16.985,7.758 16.985,7.758 C16.985,7.758 16.985,10.859 16.985,10.859 C16.985,10.859 12.353,10.859 12.353,10.859 C12.353,10.859 12.353,7.758 12.353,7.758 ZM3.088,37.212 C3.088,37.866 3.455,38.564 4.177,39.288 C4.177,39.288 1.997,41.483 1.997,41.483 C0.672,40.156 -0.000,38.720 -0.000,37.212 C-0.000,33.732 3.568,30.695 10.319,28.433 C10.319,28.433 11.296,31.373 11.296,31.373 C6.234,33.070 3.088,35.308 3.088,37.212 ZM7.720,12.409 C7.720,12.409 10.809,12.409 10.809,12.409 C10.809,12.409 10.809,17.059 10.809,17.059 C10.809,17.059 7.720,17.059 7.720,17.059 C7.720,17.059 7.720,12.409 7.720,12.409 ZM7.720,1.557 C7.720,1.557 10.809,1.557 10.809,1.557 C10.809,1.557 10.809,6.208 10.809,6.208 C10.809,6.208 7.720,6.208 7.720,6.208 C7.720,6.208 7.720,1.557 7.720,1.557 ZM1.544,7.758 C1.544,7.758 6.176,7.758 6.176,7.758 C6.176,7.758 6.176,10.859 6.176,10.859 C6.176,10.859 1.544,10.859 1.544,10.859 C1.544,10.859 1.544,7.758 1.544,7.758 Z" id="path-1" class="cls-2" fill-rule="evenodd"/>
</svg>
